<svg width="183" height="48" viewBox="0 0 183 48" xmlns="http://www.w3.org/2000/svg"><title>logo</title><desc>Linux Command Logo. https://github.com/jaywcjlove</desc><g fill="#4A4A4A" fill-rule="evenodd"><path d="M20.492 0c-.303 0-.62.012-.95.039-8.334.671-6.123 9.476-6.247 12.424-.152 2.156-.59 3.856-2.072 5.963-1.743 2.072-4.195 5.425-5.357 8.916-.549 1.647-.81 3.327-.569 4.916a3.445 3.445 0 0 0-.215.211c-.512.546-.89 1.208-1.311 1.653-.393.393-.954.542-1.57.763-.616.221-1.293.547-1.704 1.335l-.002.005c-.372.694-.261 1.494-.148 2.235.114.74.229 1.44.076 1.916-.488 1.333-.55 2.255-.207 2.924.345.67 1.052.966 1.852 1.133 1.599.334 3.764.25 5.471 1.155l.147-.276-.145.277c1.827.955 3.68 1.295 5.157.957 1.072-.245 1.941-.883 2.388-1.864 1.156-.006 2.424-.496 4.456-.607 1.379-.111 3.1.49 5.081.38a2.69 2.69 0 0 0 .233.623c.767 1.535 2.194 2.238 3.714 2.118 1.523-.12 3.141-1.018 4.45-2.575l-.24-.202.242.2c1.247-1.512 3.316-2.14 4.689-2.967.686-.414 1.243-.933 1.286-1.685.043-.753-.399-1.596-1.414-2.723l-.002-.002c-.334-.378-.493-1.077-.664-1.821-.171-.744-.362-1.546-.973-2.066a2.461 2.461 0 0 0-.754-.455c.85-2.519.517-5.027-.34-7.293-1.052-2.78-2.889-5.204-4.291-6.862-1.57-1.98-3.106-3.86-3.076-6.637C27.53 7.87 27.95.01 20.491 0zm1.01 6.53c.423 0 .784.124 1.155.393.378.274.65.617.868 1.095.215.467.319.923.329 1.464 0 .014 0 .027.004.04a3.558 3.558 0 0 1-.302 1.512c-.12.275-.259.506-.424.706a14.383 14.383 0 0 0-1.184-.465c.097-.116.178-.255.249-.428.107-.262.16-.517.17-.821 0-.012.004-.023.004-.037a2.28 2.28 0 0 0-.117-.797 1.47 1.47 0 0 0-.367-.62.75.75 0 0 0-.526-.24h-.027a.768.768 0 0 0-.512.203 1.465 1.465 0 0 0-.412.592c-.107.26-.16.518-.17.824-.002.012-.002.022-.002.034-.004.169.007.323.033.472a4.999 4.999 0 0 0-1.07-.397 4.157 4.157 0 0 1-.034-.45v-.042a3.5 3.5 0 0 1 .298-1.511c.213-.483.477-.83.848-1.111.37-.282.736-.412 1.168-.416h.02zm-5.793.458c.28 0 .532.095.792.302.282.225.495.513.673.919.179.405.274.811.3 1.29v.003c.013.201.011.39-.004.574a3.556 3.556 0 0 0-.965.45c.022-.16.026-.323.008-.504-.002-.01-.002-.019-.002-.029a2.208 2.208 0 0 0-.16-.649 1.253 1.253 0 0 0-.327-.478.533.533 0 0 0-.401-.15c-.142.012-.26.08-.371.217a1.257 1.257 0 0 0-.238.527 2.112 2.112 0 0 0-.044.693l.002.029c.024.243.073.446.16.65.09.211.193.362.327.477.022.02.044.037.066.052-.139.108-.205.157-.32.24l-.261.193c-.22-.207-.393-.467-.544-.81a3.622 3.622 0 0 1-.302-1.289v-.004c-.026-.479.02-.89.152-1.316.132-.426.308-.734.564-.988.255-.253.513-.38.823-.397l.072-.002zm2.634 3.32c.653-.002 1.438.212 2.389.823.584.38 1.038.411 2.084.86h.002c.504.207.8.476.944.76.144.283.148.59.027.914-.242.647-1.013 1.327-2.095 1.665h-.001l-.001.001c-.528.172-.988.55-1.53.86-.543.31-1.157.561-1.992.513-.71-.042-1.135-.283-1.52-.592-.383-.308-.718-.696-1.208-.984h-.001l-.002-.002c-.79-.446-1.22-.962-1.356-1.41-.135-.447-.008-.829.384-1.122.44-.33.746-.555.95-.704.202-.149.287-.205.351-.267h.001c.331-.314.859-.885 1.654-1.158a2.84 2.84 0 0 1 .92-.157zm4.563 2.699c-.281.017-.576.162-.92.353-.343.192-.73.437-1.148.679-.837.483-1.8.945-2.757.945-.96 0-1.725-.443-2.3-.899-.287-.227-.525-.457-.714-.634a3.673 3.673 0 0 0-.254-.223c-.076-.06-.139-.118-.267-.118l-.006.27c-.01.09-.019.087-.015.09.006.003.036.014.07.04.057.044.135.115.228.201.186.174.432.413.736.654.608.482 1.453.976 2.522.976 1.07 0 2.083-.5 2.936-.993.426-.246.814-.492 1.143-.676.33-.184.607-.3.768-.309l-.022-.356zm.952 1.28c.71 2.803 2.364 6.85 3.427 8.826.565 1.048 1.689 3.275 2.174 5.958a3.66 3.66 0 0 1 1.01.128c1.269-3.291-1.077-6.836-2.15-7.824-.433-.42-.454-.608-.24-.6 1.165 1.03 2.693 3.1 3.249 5.437.253 1.065.307 2.186.035 3.291.133.055.268.115.405.18 2.038.993 2.792 1.855 2.43 3.033a5.892 5.892 0 0 0-.352 0h-.032c.295-.933-.359-1.622-2.1-2.41-1.807-.795-3.247-.716-3.49.896a3.55 3.55 0 0 0-.038.258c-.135.047-.27.107-.407.181-.848.464-1.311 1.307-1.569 2.34-.257 1.032-.33 2.28-.402 3.683-.043.706-.333 1.66-.627 2.67-2.96 2.112-7.068 3.027-10.556.647a15.507 15.507 0 0 0-.786-1.11 44.047 44.047 0 0 0-.544-.694c.358 0 .663-.059.909-.17.305-.139.52-.362.627-.648.212-.571-.001-1.378-.682-2.3-.68-.921-1.834-1.96-3.528-3-1.244-.774-1.94-1.723-2.266-2.754-.326-1.03-.28-2.145-.03-3.245.483-2.111 1.721-4.165 2.511-5.454.213-.157.076.29-.8 1.917-.785 1.487-2.252 4.92-.243 7.598.054-1.906.51-3.85 1.273-5.67 1.114-2.523 3.442-6.9 3.627-10.387.096.069.423.29.57.373.428.252.748.62 1.164.954.416.334.936.623 1.722.669.918.053 1.617-.231 2.19-.559.571-.327 1.028-.688 1.461-.83h.002c.914-.286 1.642-.792 2.055-1.383zm5.809 16.044c.37-.001.82.122 1.31.342 1.323.61 1.736 1.133 1.375 1.902-.304.58-1.606 1.503-2.498 1.26-.91-.236-1.355-1.548-1.207-2.54.08-.673.46-.961 1.02-.964zm-1.496 1.812c.075 1.213.675 2.45 1.736 2.717 1.16.306 2.835-.69 3.542-1.503.14-.005.278-.012.412-.015.62-.015 1.14.02 1.671.485l.002.001.002.002c.408.346.602 1 .77 1.732.169.732.304 1.53.808 2.098l.001.001v.001c.971 1.077 1.283 1.805 1.257 2.27-.027.464-.363.809-.985 1.184-1.241.749-3.442 1.4-4.847 3.102-1.22 1.452-2.708 2.25-4.019 2.353-1.31.104-2.441-.44-3.108-1.778l-.001-.003-.002-.003c-.414-.787-.241-2.028.107-3.338s.849-2.654.916-3.747V37.7c.07-1.4.149-2.623.384-3.567.235-.943.606-1.582 1.262-1.941.03-.017.06-.033.091-.047h.001zm-21.31.092c.098 0 .201.008.312.025.743.113 1.39.632 2.014 1.479.625.846 1.205 2.002 1.802 3.283l.001.002v.002c.48 1.001 1.493 2.102 2.35 3.225.858 1.123 1.522 2.25 1.436 3.113v.008c-.113 1.472-.943 2.273-2.217 2.564-1.274.291-3.001.002-4.726-.9H7.83c-1.909-1.011-4.179-.91-5.635-1.215-.729-.152-1.204-.38-1.422-.806-.218-.425-.223-1.166.24-2.43l.003-.006.001-.006c.23-.707.06-1.48-.051-2.207-.112-.726-.166-1.386.082-1.847l.001-.002.002-.002c.317-.612.783-.831 1.36-1.038.579-.208 1.264-.37 1.805-.913l.003-.003.003-.002c.5-.528.876-1.19 1.316-1.66.37-.396.742-.658 1.302-.662h.02v-.002zM58.501 40V6.758h6.918v28.525h14.982V40H58.5zm27.751 0V15.338h6.649V40h-6.649zm0-28.817V5.635h6.649v5.548h-6.649zM100.212 40V15.338h6.648v4.65c2.171-3.475 4.971-5.212 8.4-5.212 2.201 0 3.938.697 5.211 2.09 1.273 1.392 1.91 3.293 1.91 5.704V40h-6.65V24.21c0-2.8-.927-4.2-2.784-4.2-2.112 0-4.14 1.49-6.087 4.47V40h-6.649zm45.46 0v-4.65c-2.156 3.475-4.956 5.212-8.4 5.212-2.201 0-3.938-.697-5.211-2.09-1.273-1.392-1.91-3.294-1.91-5.704v-17.43h6.65v15.79c0 2.8.935 4.2 2.807 4.2 2.096 0 4.118-1.49 6.064-4.47v-15.52h6.649V40h-6.649zm12.331 0l8.468-12.376-8.108-12.286h7.57l5.3 7.816 5.076-7.816h5.39l-7.726 12.106L182.261 40h-7.57l-5.524-8.153-5.66 8.153h-5.504z"/></g></svg>