<svg xmlns="http://www.w3.org/2000/svg" width="512" height="512" viewBox="0 0 512 512"><title/><path d="M264.743 48.546c-2.671 0-5.447.13-8.302.363-73.103 5.759-53.7 83.142-54.79 108.927-1.349 18.886-5.187 33.802-18.186 52.247-15.304 18.161-36.785 47.55-46.952 78.162-4.825 14.397-7.109 29.133-4.98 43.063a7.557 7.557 0 0 0-1.9 2.296l-.019.039c-4.487 4.617-7.784 10.377-11.466 14.5-3.448 3.449-8.38 4.617-13.774 6.927-5.395 2.334-11.363 4.643-14.942 11.777-1.443 2.928-2.284 6.373-2.284 10.017 0 .127.001.252.003.379l-.001-.018c0 3.45.493 6.953.959 9.262.984 6.928 1.998 12.632.648 16.783-4.28 11.75-4.825 19.82-1.817 25.681 3.008 5.785 9.262 8.094 16.264 10.377 14.008 3.475 33.023 2.334 47.992 10.377 16.005 8.096 32.272 11.596 45.243 8.121 9.243-2.068 16.768-8.097 20.829-16.167l.081-.175c10.143-.051 21.272-4.642 39.067-5.785 12.088-.985 27.238 4.591 44.593 3.449.441 2.308 1.089 3.448 1.972 5.759l.052.052c6.745 13.49 19.25 19.587 32.582 18.549s27.524-9.262 39.015-22.596c10.922-13.231 29.107-18.729 41.144-25.993 6.019-3.449 10.87-8.094 11.233-14.733.389-6.928-3.449-14.034-12.348-23.813v-1.687l-.052-.052c-2.93-3.449-4.332-9.236-5.837-16.005-1.478-6.928-3.138-13.593-8.51-18.082h-.052c-1.038-.933-2.153-1.166-3.241-2.334a6.46 6.46 0 0 0-3.277-1.115l-.016-.001c7.445-22.103 4.538-44.101-2.983-63.895-9.236-24.385-25.344-45.606-37.64-60.236-13.748-17.381-27.238-33.855-26.978-58.264.44-37.2 4.072-106.049-61.324-106.152zm9.158 58.886h.207c3.708 0 6.875 1.063 10.117 3.423 3.32 2.335 5.707 5.759 7.601 9.236 1.816 4.462 2.723 7.939 2.853 12.502 0-.337.103-.673.103-1.011v1.79a1.23 1.23 0 0 1-.052-.363l-.078-.415a30.63 30.63 0 0 1-2.671 12.414l.078-.195a16.485 16.485 0 0 1-3.685 5.786l.003-.003c-.519-.26-.985-.518-1.531-.725-1.816-.778-3.448-1.114-4.928-2.282a21.113 21.113 0 0 0-3.639-1.141l-.146-.028c.854-1.011 2.515-2.282 3.137-3.422.874-2.046 1.426-4.422 1.529-6.912l.002-.039v-.311a20.798 20.798 0 0 0-1.08-7.074l.042.146c-.778-2.335-1.738-3.475-3.164-5.785-1.452-1.141-2.878-2.282-4.617-2.282h-.26c-1.608 0-3.034.519-4.512 2.282a14.076 14.076 0 0 0-3.551 5.684l-.029.099c-.868 2.04-1.417 4.404-1.529 6.881l-.002.042v.311c.01 1.637.12 3.237.332 4.809l-.021-.191c-3.32-1.167-7.55-2.334-10.481-3.501a27.247 27.247 0 0 1-.31-3.408l-.001-.042v-.337a30.719 30.719 0 0 1 2.672-13.477l-.079.195c1.481-3.864 4.069-7.031 7.372-9.192l.072-.043a16.814 16.814 0 0 1 10.212-3.423h.01zm-51.236 1.012h.622c2.611.055 5.006.923 6.959 2.358l-.036-.022a23.92 23.92 0 0 1 5.879 7.894l.061.146c1.556 3.449 2.412 6.927 2.645 11.544v.052c.103 2.334.078 3.475-.052 4.617v1.375c-.518.13-.958.311-1.427.441-2.645.933-4.746 2.309-6.797 3.449a19.017 19.017 0 0 0 .044-4.705l.01.088v-.26c-.208-2.282-.674-3.448-1.427-5.759a10.664 10.664 0 0 0-2.848-4.614l-.005-.004a4.392 4.392 0 0 0-3.176-1.114l.012-.001h-.363c-1.244.103-2.256.698-3.242 2.282a9.217 9.217 0 0 0-2.069 4.618l-.007.048a16.537 16.537 0 0 0-.477 3.988c0 .607.032 1.206.094 1.794l-.007-.073v.26c.208 2.334.649 3.475 1.4 5.785a10.432 10.432 0 0 0 2.847 4.613l.006.006c.176.149.372.296.575.428l.023.013c-1.219.958-2.023 1.192-3.035 2.334-.649.467-1.4 1.036-2.282 1.167a46.433 46.433 0 0 1-4.651-6.721l-.12-.231c-1.56-3.387-2.53-7.335-2.67-11.493l-.001-.052a30 30 0 0 1 1.435-11.757l-.061.212c1.026-3.565 2.72-6.654 4.956-9.269l-.029.035c2.205-2.308 4.488-3.475 7.213-3.475zm23.71 29.523c5.733 0 12.659 1.114 21.012 6.901 5.084 3.449 9.055 4.643 18.212 8.095h.052c4.409 2.334 7.005 4.591 8.276 6.901v-2.282a9.726 9.726 0 0 1 1.01 4.347 9.832 9.832 0 0 1-.774 3.837l.024-.065c-2.127 5.369-8.925 11.129-18.419 14.578v.052c-4.617 2.334-8.666 5.759-13.412 8.043-4.772 2.334-10.169 5.058-17.485 4.617a19.607 19.607 0 0 1-7.891-1.212l.137.043a60.86 60.86 0 0 1-5.778-3.555l.198.132c-3.371-2.334-6.279-5.759-10.585-8.043v-.078h-.052c-6.927-4.254-10.662-8.847-11.855-12.296-1.192-4.617-.078-8.095 3.345-10.377 3.864-2.334 6.564-4.669 8.354-5.811 1.791-1.27 2.464-1.738 3.035-2.257h.052v-.077c2.905-3.475 7.524-8.095 14.5-10.377 2.387-.623 5.058-1.114 8.043-1.141zm48.407 37.044c6.226 24.514 20.727 60.106 30.039 77.359 4.954 9.236 14.786 28.691 19.041 52.299 2.697-.078 5.707.311 8.873 1.115 11.156-28.899-9.444-59.951-18.834-68.59-3.812-3.474-4.02-5.785-2.127-5.785 10.195 9.236 23.606 27.186 28.457 47.68 2.231 9.236 2.749 19.094.363 28.873 1.166.492 2.334 1.036 3.553 1.166 17.849 9.236 24.437 16.238 21.272 26.588v-.752c-1.036-.052-2.075 0-3.112 0h-.233c2.594-8.07-3.164-14.267-18.445-21.168-15.824-6.928-28.457-5.811-30.611 8.043-.13.752-.207 1.166-.286 2.334-1.192.415-2.412.908-3.63 1.115-7.42 4.618-11.44 11.57-13.697 20.521-2.257 9.236-2.931 20.002-3.553 32.324v.052c-.389 5.759-2.957 14.474-5.525 23.347-25.94 18.549-61.922 26.615-92.507 5.785-2.013-3.502-4.317-6.526-6.958-9.216l.007.007a24.945 24.945 0 0 0-4.748-5.763l-.023-.021c3.137 0 5.863-.519 8.043-1.166 2.496-1.168 4.424-3.207 5.422-5.712l.025-.071c1.868-4.616 0-12.036-5.967-20.106s-16.083-17.199-30.923-26.303c-10.896-6.927-17.043-15.044-19.898-24.151-2.852-9.236-2.464-18.757-.259-28.431 4.228-18.523 15.096-36.5 22.051-47.785 1.841-1.141.622 2.334-7.057 16.835-6.875 12.997-19.742 43.193-2.127 66.671.722-18.13 4.774-35.127 11.558-50.66l-.351.902c9.754-22.103 30.144-60.599 31.754-91.108.829.623 3.734 2.334 5.006 3.501 3.76 2.309 6.564 5.759 10.195 8.043 3.63 3.475 8.251 5.785 15.148 5.785.674.052 1.297.103 1.92.103 7.109 0 12.606-2.309 17.225-4.617 5.031-2.309 9.028-5.785 12.815-6.927h.078c8.043-2.334 14.423-6.953 18.056-12.114zm37.798 154.948c.649 10.377 5.94 21.531 15.252 23.813 10.169 2.308 24.8-5.759 31.002-13.231l3.63-.156c5.447-.13 9.987.182 14.656 4.617l.052.052c3.579 3.448 5.265 9.183 6.746 15.148 1.478 6.927 2.646 13.489 7.083 18.419 8.406 9.132 11.156 15.694 10.999 19.716l.052-.103v.311l-.052-.207c-.26 4.539-3.216 6.875-8.613 10.299-10.896 6.927-30.197 12.296-42.519 27.16-10.688 12.762-23.71 19.716-35.202 20.623s-21.401-3.474-27.238-15.564l-.078-.052c-3.63-6.928-2.075-17.719.959-29.237 3.06-11.545 7.42-23.269 8.017-32.816.623-12.348 1.322-23.089 3.371-31.39 2.075-8.043 5.317-13.775 11.077-17.017l.778-.389zm-187.04.856h.204c.952 0 1.888.075 2.8.221l-.101-.013c6.512.959 12.192 5.785 17.693 13.022l15.746 28.769.052.052c4.202 9.236 13.048 18.419 20.572 28.327 7.498 10.325 13.308 19.562 12.607 27.16v.103c-.984 12.841-8.303 19.846-19.458 22.387-11.155 2.309-26.303.026-41.429-8.043-16.731-9.262-36.629-8.094-49.417-10.403-6.382-1.14-10.585-3.475-12.504-6.953-1.919-3.449-1.945-10.377 2.127-21.272v-.052l.052-.052c2.023-5.759.519-13.022-.466-19.353-.959-6.928-1.453-12.244.725-16.264 2.775-5.759 6.876-6.901 11.933-9.209 5.084-2.334 11.077-3.501 15.823-8.121h.052v-.052c4.409-4.617 7.705-10.377 11.545-14.474 3.267-3.474 6.564-5.785 11.466-5.785zm123.82-156.946c-7.524 3.475-16.343 9.236-25.733 9.236s-16.783-4.59-22.129-8.043c-2.672-2.334-4.825-4.643-6.46-5.785-2.827-2.334-2.49-5.785-1.297-5.785 1.919.26 2.231 2.334 3.449 3.474 1.66 1.141 3.734 3.45 6.253 5.759 5.031 3.475 11.751 8.07 20.183 8.07 8.381 0 18.187-4.591 24.176-8.043 3.371-2.334 7.705-5.785 11.207-8.095 2.697-2.334 2.593-4.617 4.825-4.617 2.23.26.596 2.309-2.542 5.759-3.113 2.334-7.966 5.785-11.933 8.095zm-18.729-27.394v-.389c-.103-.337.233-.725.518-.881 1.297-.725 3.112-.466 4.487.078 1.088 0 2.775 1.167 2.594 2.334-.103.829-1.452 1.141-2.334 1.141-.933 0-1.583-.726-2.412-1.167-.933-.31-2.542-.155-2.852-1.141zm-9.52 0c-.336.984-1.945.83-2.852 1.141-.829.441-1.505 1.167-2.412 1.167-.881 0-2.256-.312-2.36-1.167-.155-1.141 1.53-2.309 2.593-2.309 1.4-.518 3.191-.804 4.488-.078.311.155.623.518.518.881v.363z"/></svg>