<svg class="icon" viewBox="0 0 1024 1024" xmlns="http://www.w3.org/2000/svg" width="16" height="16"><defs><style/></defs><path d="M533.56.384c-6.59 0-13.435.32-20.472.896-180.285 14.202-132.43 205.043-135.118 268.635-3.326 46.574-12.795 83.36-44.847 128.847-37.746 44.784-90.718 117.268-115.796 192.76-11.9 35.507-17.53 71.845-12.284 106.2a18.553 18.553 0 0 0-4.734 5.758c-11.068 11.388-19.193 25.59-28.278 35.763-8.508 8.509-20.664 11.388-33.97 17.081-13.308 5.758-28.022 11.452-36.851 29.045a56.939 56.939 0 0 0-5.63 25.59c0 8.51 1.216 17.146 2.367 22.84 2.431 17.082 4.926 31.157 1.6 41.393-10.556 28.98-11.9 48.877-4.479 63.336 7.422 14.267 22.84 19.96 40.113 25.59 34.547 8.573 81.442 5.758 118.356 25.59 39.473 19.961 79.586 28.598 111.574 20.025a75.492 75.492 0 0 0 51.565-40.305c25.014-.127 52.46-11.451 96.348-14.266 29.812-2.431 67.174 11.324 109.974 8.509 1.088 5.693 2.687 8.508 4.863 14.202l.128.128c16.633 33.268 47.47 48.302 80.353 45.743 32.884-2.559 67.879-22.84 96.22-55.723 26.934-32.628 71.781-46.19 101.466-64.104 14.843-8.509 26.806-19.96 27.702-36.338.96-17.082-8.509-34.611-30.453-58.73v-4.159l-.128-.128c-7.229-8.509-10.684-22.775-14.394-39.473-3.647-17.082-7.741-33.523-20.984-44.591h-.128c-2.56-2.303-5.31-2.88-7.997-5.758a16.122 16.122 0 0 0-8.125-2.751c18.36-54.508 11.195-108.76-7.358-157.573-22.775-60.137-62.504-112.47-92.829-148.552C717.427 363 684.16 322.375 684.8 262.174 685.887 170.432 694.843.64 533.56.384zm22.583 145.225h.512c9.149 0 16.954 2.623 24.95 8.445 8.19 5.758 14.076 14.203 18.746 22.776 4.478 11.004 6.717 19.576 7.037 30.836 0-.832.256-1.663.256-2.495v4.414a3.199 3.199 0 0 1-.128-.895l-.192-1.024a75.748 75.748 0 0 1-6.397 30.133 40.497 40.497 0 0 1-9.085 14.266c-1.28-.64-2.431-1.279-3.775-1.79-4.478-1.92-8.508-2.752-12.155-5.63a55.02 55.02 0 0 0-9.34-2.88c2.11-2.495 6.205-5.63 7.74-8.444a49.837 49.837 0 0 0 3.775-17.146v-.768a51.373 51.373 0 0 0-2.559-17.081c-1.92-5.758-4.286-8.573-7.805-14.267-3.583-2.815-7.101-5.63-11.388-5.63h-.64c-3.966 0-7.485 1.28-11.131 5.63a34.675 34.675 0 0 0-8.829 14.267 50.413 50.413 0 0 0-3.774 17.081v.768a92.125 92.125 0 0 0 .767 11.388c-8.189-2.88-18.617-5.758-25.846-8.637a70.502 70.502 0 0 1-.768-8.509v-.832a76.067 76.067 0 0 1 6.398-32.755 46.702 46.702 0 0 1 18.36-22.776 41.776 41.776 0 0 1 25.207-8.445zm-126.352 2.495h1.535a30.069 30.069 0 0 1 17.082 5.758 58.73 58.73 0 0 1 14.65 19.833c3.839 8.509 5.95 17.081 6.526 28.47v.127c.256 5.758.192 8.573-.128 11.388v3.39c-1.28.32-2.367.768-3.519 1.088-6.525 2.303-11.707 5.694-16.761 8.509a46.383 46.383 0 0 0 .128-11.388v-.64c-.512-5.63-1.664-8.508-3.52-14.202a26.23 26.23 0 0 0-7.037-11.388 10.876 10.876 0 0 0-7.805-2.75h-.895c-3.071.255-5.566 1.726-7.997 5.629a22.903 22.903 0 0 0-5.118 11.516 41.648 41.648 0 0 0-.96 14.074v.64c.512 5.758 1.6 8.573 3.455 14.267a25.59 25.59 0 0 0 7.037 11.388 14.33 14.33 0 0 0 1.472 1.087c-3.007 2.367-4.99 2.943-7.486 5.758-1.6 1.152-3.454 2.559-5.63 2.879a115.413 115.413 0 0 1-11.771-17.146 75.62 75.62 0 0 1-6.59-28.469 74.02 74.02 0 0 1 3.391-28.47 60.457 60.457 0 0 1 12.155-22.775c5.438-5.694 11.068-8.573 17.786-8.573zm58.474 72.805c14.139 0 31.22 2.751 51.82 17.018 12.54 8.509 22.328 11.451 44.912 19.96h.128c10.876 5.758 17.273 11.324 20.408 17.018v-5.63a24.31 24.31 0 0 1 .64 20.025c-5.246 13.243-22.008 27.445-45.423 35.954v.128c-11.388 5.758-21.368 14.203-33.076 19.833-11.771 5.757-25.078 12.475-43.12 11.387a48.494 48.494 0 0 1-19.129-2.879 151.24 151.24 0 0 1-13.754-8.444c-8.317-5.758-15.483-14.203-26.103-19.833v-.192h-.128c-17.081-10.492-26.294-21.816-29.237-30.325-2.942-11.387-.192-19.96 8.253-25.59 9.533-5.758 16.186-11.516 20.6-14.33 4.415-3.135 6.078-4.287 7.486-5.567h.128v-.191c7.165-8.573 18.553-19.961 35.762-25.59 5.886-1.536 12.476-2.752 19.833-2.816zm119.38 91.358c15.353 60.457 51.116 148.232 74.083 190.776 12.22 22.776 36.467 70.758 46.959 128.976 6.653-.192 14.074.768 21.88 2.751 27.51-71.27-23.288-147.849-46.447-169.153-9.405-8.572-9.916-14.266-5.246-14.266 25.142 22.775 58.218 67.047 70.182 117.588 5.502 22.775 6.781 47.086.895 71.205 2.88 1.215 5.758 2.559 8.765 2.879 44.015 22.775 60.265 40.049 52.46 65.575v-1.855c-2.559-.128-5.118 0-7.677 0h-.576c6.398-19.897-7.805-35.187-45.487-52.204-39.025-17.082-70.181-14.331-75.491 19.832-.32 1.855-.512 2.879-.704 5.758-2.943 1.024-5.95 2.24-8.957 2.75-18.297 11.389-28.213 28.534-33.779 50.606-5.566 22.775-7.23 49.325-8.765 79.714v.128c-.96 14.203-7.293 35.699-13.627 57.578-63.976 45.743-152.71 65.64-228.138 14.267a110.23 110.23 0 0 0-17.146-22.711 60.777 60.777 0 0 0-11.771-14.267c7.74 0 14.458-1.28 19.832-2.879a26.166 26.166 0 0 0 13.435-14.267c4.607-11.387 0-29.685-14.714-49.581s-39.665-42.416-76.26-64.872c-26.87-17.081-42.032-37.106-49.07-59.561-7.036-22.776-6.077-46.255-.639-70.118 10.428-45.679 37.234-90.014 54.38-117.844 4.542-2.815 1.535 5.758-17.402 41.52-16.953 32.053-48.685 106.52-5.246 164.419a345.982 345.982 0 0 1 27.638-122.706c24.055-54.508 74.34-149.448 78.307-224.684 2.047 1.536 9.212 5.758 12.347 8.637 9.276 5.694 16.186 14.203 25.142 19.832 8.957 8.573 20.345 14.267 37.362 14.267 1.664.128 3.2.256 4.735.256 17.53 0 31.092-5.694 42.48-11.388 12.411-5.694 22.263-14.266 31.604-17.081h.192c19.832-5.758 35.57-17.146 44.527-29.877zm93.212 382.129c1.6 25.59 14.65 53.1 37.618 58.73 25.079 5.693 61.161-14.203 76.451-32.628l8.957-.384c13.435-.32 24.63.448 36.146 11.388l.128.128c8.83 8.508 12.988 22.647 16.634 37.362 3.647 17.081 6.526 33.267 17.466 45.423 20.728 22.52 27.51 38.705 27.125 48.621l.128-.256v.768l-.128-.512c-.64 11.196-7.933 16.954-21.24 25.399-26.87 17.081-74.468 30.324-104.856 66.983-26.358 31.476-58.474 48.621-86.816 50.86-28.341 2.24-52.78-8.572-67.174-38.385l-.192-.128c-8.957-17.082-5.118-43.696 2.367-72.1 7.549-28.47 18.297-57.387 19.768-80.93 1.536-30.453 3.263-56.94 8.317-77.411 5.118-19.833 13.115-33.972 27.318-41.969l1.92-.96zm-461.267 2.11h.448a43.504 43.504 0 0 1 6.717.513c16.058 2.367 30.07 14.266 43.632 32.116l38.834 70.949.127.128c10.365 22.775 32.18 45.423 50.733 69.862 18.49 25.462 32.82 48.238 31.093 66.983v.256c-2.431 31.668-20.473 48.941-47.982 55.21-27.51 5.695-64.872.065-102.17-19.832-41.264-22.84-90.334-19.96-121.874-25.654-15.738-2.815-26.102-8.573-30.837-17.146-4.734-8.509-4.798-25.59 5.246-52.46v-.128l.128-.128c4.99-14.203 1.28-32.116-1.151-47.726-2.367-17.082-3.583-30.197 1.791-40.113 6.846-14.203 16.954-17.018 29.43-22.711 12.538-5.758 27.317-8.637 39.024-20.025h.128v-.128c10.876-11.388 19.001-25.59 28.47-35.699 8.06-8.572 16.186-14.266 28.277-14.266zm305.358-387.054c-18.553 8.573-40.305 22.775-63.465 22.775s-41.392-11.323-54.571-19.832c-6.59-5.758-11.9-11.452-15.93-14.267-6.974-5.758-6.142-14.266-3.199-14.266 4.734.64 5.502 5.757 8.509 8.572 4.094 2.815 9.212 8.51 15.418 14.203 12.411 8.573 28.981 19.897 49.773 19.897 20.665 0 44.848-11.324 59.626-19.833 8.317-5.758 19.001-14.267 27.638-19.96 6.653-5.758 6.397-11.388 11.9-11.388 5.501.64 1.47 5.694-6.27 14.202-7.678 5.758-19.641 14.267-29.43 19.96zm-46.191-67.559v-.96c-.256-.831.576-1.79 1.28-2.175 3.198-1.79 7.677-1.151 11.067.192 2.687 0 6.846 2.88 6.398 5.758-.256 2.047-3.583 2.815-5.758 2.815-2.303 0-3.902-1.791-5.95-2.879-2.303-.767-6.27-.384-7.037-2.815zm-23.48 0c-.83 2.431-4.797 2.048-7.037 2.815-2.047 1.088-3.71 2.88-5.95 2.88-2.175 0-5.565-.769-5.821-2.88-.384-2.815 3.774-5.694 6.397-5.694 3.455-1.28 7.87-1.983 11.068-.192.768.384 1.536 1.28 1.28 2.176v.895z"/></svg>