<?xml version="1.0" standalone="no"?><!DOCTYPE svg PUBLIC "-//W3C//DTD SVG 1.1//EN" "http://www.w3.org/Graphics/SVG/1.1/DTD/svg11.dtd"><svg t="1503366893218" class="icon" style="" viewBox="0 0 1024 1024" version="1.1" xmlns="http://www.w3.org/2000/svg" p-id="6649" xmlns:xlink="http://www.w3.org/1999/xlink" width="16" height="16"><defs><style type="text/css"></style></defs><path d="M465.98144 1001.73913a89.577739 89.577739 0 0 1-89.889391-88.954434l-0.356174-63.666087c-176.662261 38.422261-213.926957-74.930087-213.926957-74.930087C132.91431 700.816696 91.286483 681.316174 91.286483 681.316174c-57.61113-39.446261 4.36313-38.64487 4.363131-38.64487 63.710609 4.452174 97.28 65.446957 97.28 65.446957 56.631652 97.057391 148.569043 69.008696 184.765217 52.802782 5.698783-41.049043 22.171826-69.053217 40.336696-84.947478-141.04487-16.027826-289.302261-70.522435-289.302261-313.789217 0-69.320348 24.798609-125.952 65.446957-170.429218-6.589217-16.027826-28.315826-80.584348 6.144-168.025043 0 0 53.337043-17.051826 174.658782 65.090783a609.28 609.28 0 0 1 158.942609-21.370435c53.915826 0.222609 108.27687 7.257043 159.031652 21.370435C814.185962 6.678261 867.433962 23.730087 867.433962 23.730087c34.54887 87.485217 12.822261 152.041739 6.233043 168.025043 40.69287 44.432696 65.357913 101.10887 65.357913 170.429218 0 243.890087-148.569043 297.583304-289.925565 313.299478 22.750609 19.72313 43.052522 58.323478 43.052522 117.581913 0 84.992-0.311652 119.674435-0.311652 119.674435a89.622261 89.622261 0 0 1-89.800348 88.998956H465.98144z" p-id="6650"></path></svg>